<svg xmlns="http://www.w3.org/2000/svg" xmlns:xlink="http://www.w3.org/1999/xlink" viewBox="0 0 87.02 87.03"><defs><style>.cls-1{fill:url(#New_Gradient_Swatch_copy_6);}</style><radialGradient id="New_Gradient_Swatch_copy_6" cx="92.36" cy="12.76" r="141.78" gradientUnits="userSpaceOnUse"><stop offset="0" stop-color="#27aae1"/><stop offset="1" stop-color="#2b3990"/></radialGradient></defs><g id="Layer_2" data-name="Layer 2"><g id="Layer_5" data-name="Layer 5"><path class="cls-1" d="M43.51,0A43.51,43.51,0,0,0,0,42.89,32.67,32.67,0,0,1,8.91,24.73c9.15-9.48,30.92-17.33,45.64,2.6-13.95-9.95-30.86-3.43-38.09,5-5.55,6.44-11.76,19.3-6.87,34,1,3.1,4.86,10.34,11,14.22a42.6,42.6,0,0,0,23,6.55,43.52,43.52,0,0,0,0-87ZM76.13,29.42S79.66,41.2,74.37,52C68.65,63.64,56.59,67.4,48.18,62.46,48.18,62.46,77.7,64.91,76.13,29.42ZM72,67.44c-16.53,16.72-39.75,12-48.42-.63-9.34-13.61-5.18-28,5.35-34.33,12.29-7.4,23.94,0,25.6,7.48,2.7,12.16-11.28,16.54-13.83,8.93-1.1-3.28,1.13-4.52,1.13-4.52-.4,4.63,5.13,4.51,6.6,1.9,2.09-3.72-2.55-10-9.41-8.25-7.7,2-9,9.65-8.29,15.75,1,9,11.4,20.92,31.7,13.38,20-7.43,19.5-29.27,19.5-29.27S86.05,53.2,72,67.44Z"/></g></g></svg>